<?xml version="1.0" encoding="UTF-8" standalone="no"?>
<!DOCTYPE svg PUBLIC "-//W3C//DTD SVG 1.1//EN" "http://www.w3.org/Graphics/SVG/1.1/DTD/svg11.dtd">
<svg width="100%" height="100%" viewBox="0 0 512 512" version="1.1" xmlns="http://www.w3.org/2000/svg" xmlns:xlink="http://www.w3.org/1999/xlink" xml:space="preserve" xmlns:serif="http://www.serif.com/" style="fill-rule:evenodd;clip-rule:evenodd;stroke-linejoin:round;stroke-miterlimit:2;">
    <g id="pdf">
        <path d="M96,32C78.327,32 64,46.327 64,64L64,448C64,465.673 78.327,480 96,480L416,480C433.673,480 448,465.673 448,448L448,64C448,46.327 433.673,32 416,32L96,32ZM96,64L416,64L416,448L96,448L96,64Z"/>
        <path d="M320,128C320,110.327 305.673,96 288,96L96,96C78.327,96 64,110.327 64,128L64,192C64,209.673 78.327,224 96,224L288,224C305.673,224 320,209.673 320,192L320,128ZM105.654,128.292L138.377,128.292C145.504,128.292 150.842,129.987 154.391,133.376C157.94,136.766 159.715,141.59 159.715,147.848C159.715,154.279 157.781,159.306 153.913,162.927C150.046,166.549 144.143,168.359 136.205,168.359L125.427,168.359L125.427,192L105.654,192L105.654,128.292ZM239.328,128.292L288,128.292L288,141.981L259.101,141.981L259.101,153.106L283.785,153.106L283.785,165.969L259.101,165.969L259.101,192L239.328,192L239.328,128.292ZM170.275,128.292L199.521,128.292C205.287,128.292 209.944,129.074 213.493,130.639C217.042,132.203 219.975,134.448 222.293,137.375C224.611,140.301 226.291,143.705 227.334,147.587C228.377,151.469 228.898,155.583 228.898,159.929C228.898,166.737 228.123,172.017 226.573,175.769C225.024,179.521 222.872,182.664 220.12,185.199C217.368,187.734 214.413,189.422 211.255,190.262C206.938,191.421 203.027,192 199.521,192L170.275,192L170.275,128.292ZM189.961,142.72L189.961,177.529L194.785,177.529C198.899,177.529 201.825,177.073 203.563,176.16C205.301,175.247 206.663,173.654 207.648,171.38C208.633,169.105 209.125,165.419 209.125,160.32C209.125,153.569 208.025,148.949 205.823,146.457C203.621,143.965 199.971,142.72 194.872,142.72L189.961,142.72ZM125.427,155.453L130.251,155.453C134.046,155.453 136.712,154.794 138.247,153.475C139.783,152.157 140.55,150.47 140.55,148.413C140.55,146.414 139.884,144.719 138.551,143.328C137.219,141.938 134.713,141.242 131.033,141.242L125.427,141.242L125.427,155.453Z"/>
        <g transform="matrix(0.625799,0.0983368,-0.109004,0.693685,117.537,134.165)">
            <path d="M283.742,216.583C266.119,237.095 245.127,260.48 224.742,281.832C194.755,287.089 167.125,295.542 144.386,304.373L144.386,304.373C106.395,319.129 101.156,342.092 108.81,354.814C116.732,367.981 141.428,375.651 169.389,357.056C184.937,346.715 209.13,323.805 234.584,297.396C261.238,293.134 289.634,291.694 317.791,295.341C333.078,322.72 349.721,345.257 363.241,356.469C390.247,378.865 420.958,368.732 429.268,351.368C434.841,339.722 432.029,323.158 409.546,309.239C384.458,293.709 357.431,284.545 330.056,279.998C320.19,261.392 311.132,240.779 304.342,220.302C320.909,200.866 333.94,184.578 339.885,175.806C364.889,138.919 347.178,111.173 325.972,103.959C304.352,96.605 273.148,108.059 273.148,155.774C273.148,174.198 277.174,195.186 283.742,216.583ZM341.209,299.615C353.219,319.326 365.614,335.224 376.061,343.887C386.305,352.383 397.343,353.909 405.088,350.596C409.557,348.683 412.745,345.113 412.757,340.747C412.772,335.142 408.248,329.162 398.828,323.33C380.497,311.982 361.052,304.349 341.209,299.615ZM203.228,303.793C184.363,308.457 166.963,314.21 151.877,320.07L151.877,320.07C139.104,325.031 131.054,330.761 127.059,336.584C124.488,340.332 123.802,343.909 125.459,346.662C127.105,349.399 130.722,350.881 135.159,351.087C141.677,351.39 149.608,348.98 158.148,343.3C169.475,335.767 185.504,321.362 203.228,303.793ZM290.47,236.364C278.738,249.785 265.925,264.038 252.976,277.962C271.053,276.203 289.658,275.807 308.288,277.324C301.741,264.179 295.664,250.329 290.47,236.364ZM298.235,199.453C309.984,185.341 319.076,173.75 323.724,166.891C339.875,143.064 332.987,124.609 319.289,119.95C305.953,115.413 292.091,126.343 292.091,155.774C292.091,169.19 294.353,184.066 298.235,199.453Z"/>
        </g>
    </g>
</svg>
