<?xml version="1.0" encoding="UTF-8" standalone="no"?>
<!DOCTYPE svg PUBLIC "-//W3C//DTD SVG 1.1//EN" "http://www.w3.org/Graphics/SVG/1.1/DTD/svg11.dtd">
<svg width="100%" height="100%" viewBox="0 0 512 512" version="1.1" xmlns="http://www.w3.org/2000/svg" xmlns:xlink="http://www.w3.org/1999/xlink" xml:space="preserve" xmlns:serif="http://www.serif.com/" style="fill-rule:evenodd;clip-rule:evenodd;stroke-linejoin:round;stroke-miterlimit:2;">
    <g id="document">
        <path d="M96,32C78.327,32 64,46.327 64,64L64,448C64,465.673 78.327,480 96,480L416,480C433.673,480 448,465.673 448,448L448,160C448,151.513 444.629,143.374 438.627,137.373L342.627,41.373C336.626,35.371 328.487,32 320,32L96,32ZM288,64L96,64L96,448L416,448L416,192L304,192C295.163,192 288,184.837 288,176L288,64ZM416,160L320,160L320,64C320,64 416,160 416,160Z"/>
        <path d="M144,416L368,416C376.831,416 384,408.831 384,400C384,391.169 376.831,384 368,384L144,384C135.169,384 128,391.169 128,400C128,408.831 135.169,416 144,416ZM144,352L368,352C376.831,352 384,344.831 384,336C384,327.169 376.831,320 368,320L144,320C135.169,320 128,327.169 128,336C128,344.831 135.169,352 144,352ZM144,288L368,288C376.831,288 384,280.831 384,272C384,263.169 376.831,256 368,256L144,256C135.169,256 128,263.169 128,272C128,280.831 135.169,288 144,288Z"/>
    </g>
</svg>
