<?xml version="1.0" encoding="UTF-8" standalone="no"?>
<!DOCTYPE svg PUBLIC "-//W3C//DTD SVG 1.1//EN" "http://www.w3.org/Graphics/SVG/1.1/DTD/svg11.dtd">
<svg width="100%" height="100%" viewBox="0 0 512 512" version="1.1" xmlns="http://www.w3.org/2000/svg" xmlns:xlink="http://www.w3.org/1999/xlink" xml:space="preserve" xmlns:serif="http://www.serif.com/" style="fill-rule:evenodd;clip-rule:evenodd;stroke-linejoin:round;stroke-miterlimit:2;">
    <g id="image">
        <g transform="matrix(1.16667,0,0,1.16667,-42.6667,-42.6667)">
            <path d="M448,95.999C448,78.338 433.662,64 416.001,64L95.999,64C78.338,64 64,78.338 64,95.999L64,416.001C64,433.662 78.338,448 95.999,448L416.001,448C433.662,448 448,433.662 448,416.001L448,95.999ZM420.571,95.999L420.571,416.001C420.571,418.524 418.524,420.571 416.001,420.571L95.999,420.571C93.476,420.571 91.429,418.524 91.429,416.001C91.429,416.001 91.429,95.999 91.429,95.999C91.429,93.476 93.476,91.429 95.999,91.429C95.999,91.429 416.001,91.429 416.001,91.429C418.524,91.429 420.571,93.476 420.571,95.999Z"/>
        </g>
        <path d="M416,416L416,288L352,192L224,352L160,288L96,352L96,416L416,416ZM208,128C234.492,128 256,149.508 256,176C256,202.492 234.492,224 208,224C181.508,224 160,202.492 160,176C160,149.508 181.508,128 208,128Z"/>
    </g>
</svg>
